<?xml version="1.0" encoding="UTF-8" standalone="no"?>
<!DOCTYPE svg PUBLIC "-//W3C//DTD SVG 1.1//EN" "http://www.w3.org/Graphics/SVG/1.1/DTD/svg11.dtd">
<svg width="100%" height="100%" viewBox="0 0 507 507" version="1.1" xmlns="http://www.w3.org/2000/svg" xmlns:xlink="http://www.w3.org/1999/xlink" xml:space="preserve" xmlns:serif="http://www.serif.com/" style="fill-rule:evenodd;clip-rule:evenodd;stroke-linejoin:round;stroke-miterlimit:2;">
    <g transform="matrix(1,0,0,1,-125.202,101.369)">
        <path d="M373.548,363.093L373.548,370.504C373.548,376.015 369.074,380.489 363.563,380.489L143.218,380.489C137.707,380.489 133.233,376.015 133.233,370.504L133.233,363.093C133.233,296.737 187.031,242.936 253.391,242.936C258.921,242.936 264.374,243.318 269.706,244.036C296.365,247.651 320.25,260.011 338.363,278.124C360.108,299.869 373.548,329.905 373.548,363.093Z" style="fill:rgb(215,55,53);fill-rule:nonzero;"/>
    </g>
    <g transform="matrix(1,0,0,1,-125.202,101.369)">
        <path d="M373.548,363.093L373.548,370.504C373.548,376.015 369.074,380.489 363.563,380.489L175.848,380.489C170.337,380.489 165.864,376.015 165.864,370.504L165.864,363.093C165.864,302.267 211.076,251.984 269.706,244.036C296.365,247.651 320.25,260.011 338.363,278.124C360.108,299.869 373.548,329.905 373.548,363.093Z" style="fill:rgb(248,82,82);fill-rule:nonzero;"/>
    </g>
    <g transform="matrix(1,0,0,1,-125.202,101.369)">
        <path d="M253.391,284.365C239.19,284.365 227.676,272.851 227.676,258.646L227.676,201.491L279.11,201.491L279.11,258.646C279.11,272.851 267.592,284.365 253.391,284.365Z" style="fill:rgb(237,175,133);fill-rule:nonzero;"/>
    </g>
    <g transform="matrix(1,0,0,1,-125.202,101.369)">
        <path d="M150.095,154.835C150.095,167.145 160.165,177.211 172.471,177.211L181.636,177.211L181.636,132.459L172.471,132.459C160.165,132.459 150.095,142.53 150.095,154.835Z" style="fill:rgb(237,175,133);fill-rule:nonzero;"/>
    </g>
    <g transform="matrix(1,0,0,1,-125.202,101.369)">
        <path d="M334.311,132.459L325.145,132.459L325.145,177.211L334.311,177.211C346.616,177.211 356.687,167.145 356.687,154.835C356.687,142.53 346.616,132.459 334.311,132.459Z" style="fill:rgb(237,175,133);fill-rule:nonzero;"/>
    </g>
    <g transform="matrix(1,0,0,1,-125.202,101.369)">
        <path d="M327.22,83.042L327.22,169.028C327.22,205.255 300.799,235.588 266.25,241.719C262.077,242.479 257.783,242.858 253.391,242.858C212.773,242.858 179.562,209.646 179.562,169.028L179.562,83.042C179.562,77.55 184.055,73.057 189.546,73.057L317.235,73.057C322.727,73.057 327.22,77.55 327.22,83.042Z" style="fill:rgb(237,175,133);fill-rule:nonzero;"/>
    </g>
    <g transform="matrix(1,0,0,1,-125.202,101.369)">
        <path d="M327.22,83.042L327.22,169.028C327.22,205.255 300.799,235.588 266.25,241.719C231.705,235.607 205.265,205.274 205.265,169.028L205.265,83.042C205.265,77.55 209.758,73.057 215.25,73.057L317.235,73.057C322.727,73.057 327.22,77.55 327.22,83.042Z" style="fill:rgb(247,192,154);fill-rule:nonzero;"/>
    </g>
    <g transform="matrix(1,0,0,1,-125.202,101.369)">
        <path d="M198.693,69.262L198.693,113.971C198.693,124.179 190.408,132.467 180.201,132.467C169.998,132.467 161.71,124.179 161.71,113.971L161.71,69.262C161.71,59.055 169.998,50.771 180.201,50.771C185.295,50.771 189.929,52.846 193.283,56.18C196.618,59.535 198.693,64.149 198.693,69.262Z" style="fill:rgb(28,134,142);fill-rule:nonzero;"/>
    </g>
    <g transform="matrix(1,0,0,1,-125.202,101.369)">
        <path d="M198.693,69.262L198.693,89.668C198.693,99.876 190.408,108.16 180.201,108.16C169.998,108.16 161.71,99.876 161.71,89.668L161.71,69.262C161.71,59.055 169.998,50.771 180.201,50.771C185.295,50.771 189.929,52.846 193.283,56.18C196.618,59.535 198.693,64.149 198.693,69.262Z" style="fill:rgb(64,196,223);fill-rule:nonzero;"/>
    </g>
    <g transform="matrix(1,0,0,1,-125.202,101.369)">
        <path d="M368.977,12.009L364.78,26.628L355.197,60.053C347.049,88.51 319.033,109.002 289.757,104.568L205.245,94.864C201.949,94.482 199.371,91.966 198.794,88.81C198.736,88.393 198.693,87.952 198.693,87.512L198.693,69.262C198.693,45.318 218.105,25.906 242.049,25.906L306.892,25.906C326.401,25.906 345.232,18.659 359.69,5.538C360.868,4.458 362.225,4.002 363.524,4.002C367.257,4.002 370.674,7.773 368.977,12.009Z" style="fill:rgb(64,196,223);fill-rule:nonzero;"/>
    </g>
    <g transform="matrix(1,0,0,1,-125.202,101.369)">
        <path d="M364.78,26.628L355.197,60.053C347.049,88.51 319.033,109.002 289.757,104.568L205.245,94.864C201.949,94.482 199.371,91.966 198.794,88.81C200.292,66.224 219.084,48.372 242.049,48.372L306.892,48.372C326.401,48.372 345.232,41.125 359.69,28.004C360.868,26.924 362.225,26.468 363.524,26.468C363.942,26.468 364.363,26.507 364.78,26.628Z" style="fill:rgb(28,134,142);fill-rule:nonzero;"/>
    </g>
    <g>
        <g transform="matrix(1,0,0,1,-125.202,101.369)">
            <path d="M226.923,148.918C226.923,154.383 222.492,158.81 217.032,158.81C211.568,158.81 207.137,154.383 207.137,148.918C207.137,143.454 211.568,139.023 217.032,139.023C222.492,139.023 226.923,143.454 226.923,148.918Z" style="fill:rgb(73,19,82);fill-rule:nonzero;"/>
        </g>
        <g transform="matrix(1,0,0,1,-125.202,101.369)">
            <path d="M299.645,148.918C299.645,154.383 295.214,158.81 289.754,158.81C284.289,158.81 279.858,154.383 279.858,148.918C279.858,143.454 284.289,139.023 289.754,139.023C295.214,139.023 299.645,143.454 299.645,148.918Z" style="fill:rgb(73,19,82);fill-rule:nonzero;"/>
        </g>
        <g transform="matrix(1,0,0,1,-125.202,101.369)">
            <path d="M273.13,177.976C273.13,172.699 265.142,172.691 265.142,177.976C265.142,184.454 259.873,189.727 253.391,189.727C246.912,189.727 241.639,184.454 241.639,177.976C241.639,172.699 233.651,172.691 233.651,177.976C233.651,188.862 242.505,197.715 253.391,197.715C264.277,197.715 273.13,188.862 273.13,177.976Z" style="fill:rgb(73,19,82);fill-rule:nonzero;"/>
        </g>
        <g transform="matrix(1,0,0,1,-125.095,101.369)">
            <path d="M378.486,388.489C378.486,380.782 378.595,379.485 378.595,379.485C375.137,280.117 312.266,249.699 283.103,242.534L283.103,240.943C307.707,230.739 325.98,208.274 330.251,181.205L334.307,181.205C348.847,181.205 360.677,169.379 360.677,154.835C360.677,140.295 348.851,128.465 334.307,128.465L331.21,128.465L331.21,103.012C331.21,101.701 331.023,100.402 330.66,99.158C343.913,90.667 354.413,77.301 359.039,61.145L372.756,13.281C374.363,9.014 372.94,4.423 369.176,1.802C365.346,-0.862 360.451,-0.546 356.995,2.586C343.243,15.047 325.449,21.916 306.888,21.916L242.037,21.916C221.104,21.916 203.311,35.579 197.078,54.456C192.955,49.76 186.925,46.777 180.201,46.777C167.802,46.777 157.72,56.863 157.72,69.258L157.72,113.975C157.72,120.142 160.216,125.735 164.249,129.799C153.726,133.262 146.101,143.169 146.101,154.839C146.101,169.379 157.926,181.209 172.471,181.209L176.527,181.209C180.798,208.277 199.071,230.743 223.674,240.943L223.674,242.577C194.121,249.804 128.555,286.285 129.183,379.489L129.088,387.672L378.486,388.489ZM331.214,136.453L334.311,136.453C344.444,136.453 352.693,144.702 352.693,154.835C352.693,164.972 344.448,173.217 334.311,173.217L331.097,173.217C331.253,170.253 331.214,172.137 331.214,136.453ZM202.687,69.258C202.687,47.557 220.339,29.9 242.041,29.9L306.892,29.9C327.442,29.9 347.139,22.302 362.362,8.503C363.298,7.66 364.176,8.05 364.616,8.354C365.061,8.663 365.732,9.353 365.264,10.519C365.213,10.644 365.17,10.773 365.131,10.905L351.363,58.946C343.527,86.299 316.72,104.611 290.206,100.605L205.702,90.885C203.981,90.686 202.683,89.236 202.683,87.504L202.683,69.258L202.687,69.258ZM172.471,173.217C162.338,173.217 154.088,164.972 154.088,154.835C154.088,144.702 162.334,136.453 172.471,136.453L175.568,136.453C175.568,172.289 175.529,170.304 175.685,173.217L172.471,173.217ZM165.708,113.971L165.708,69.258C165.708,61.266 172.209,54.764 180.201,54.764C188.193,54.764 194.695,61.266 194.695,69.258L194.695,113.971C194.695,121.963 188.193,128.465 180.201,128.465C172.209,128.465 165.708,121.967 165.708,113.971ZM183.555,169.028L183.555,136.18C194.363,134.553 202.687,125.232 202.687,113.975L202.687,98.378C203.361,98.589 204.063,98.741 204.789,98.823C300.343,109.81 293.432,109.151 297.55,109.151C306.443,109.151 315.188,107.056 323.226,103.273L323.226,169.028C323.226,207.536 291.895,238.864 253.391,238.864C214.887,238.864 183.555,207.536 183.555,169.028ZM275.12,243.743L275.12,258.654C275.12,270.632 265.373,280.379 253.391,280.379C241.413,280.379 231.666,270.632 231.666,258.654L231.666,243.743C245.469,247.76 260.466,248.01 275.12,243.743ZM223.678,250.791L223.678,258.654C223.678,275.039 237.006,288.367 253.391,288.367C269.776,288.367 283.107,275.039 283.107,258.654L283.107,250.775C307.387,257.18 364.576,280.294 368.739,379.489L139.047,379.489C141.765,286.837 198.63,257.363 223.678,250.791Z" style="fill:rgb(73,19,82);fill-rule:nonzero;"/>
        </g>
    </g>
    <g transform="matrix(0.739128,0,0,0.739128,103.439,160.772)">
        <path d="M265.954,434.411C261.686,434.411 258.228,430.952 258.228,426.685L258.228,408.227C258.228,403.959 261.687,400.501 265.954,400.501C270.222,400.501 273.68,403.96 273.68,408.227L273.68,426.685C273.68,430.952 270.221,434.411 265.954,434.411Z" style="fill:rgb(255,39,150);fill-rule:nonzero;"/>
    </g>
    <g transform="matrix(0.739128,0,0,0.739128,103.439,160.772)">
        <path d="M294.366,434.411C290.098,434.411 286.64,430.952 286.64,426.685L286.64,408.227C286.64,403.959 290.099,400.501 294.366,400.501C298.634,400.501 302.092,403.96 302.092,408.227L302.092,426.685C302.093,430.952 298.634,434.411 294.366,434.411Z" style="fill:rgb(138,228,109);fill-rule:nonzero;"/>
    </g>
    <g transform="matrix(0.739128,0,0,0.739128,103.439,160.772)">
        <path d="M322.779,434.411C318.511,434.411 315.053,430.952 315.053,426.685L315.053,408.227C315.053,403.959 318.512,400.501 322.779,400.501C327.047,400.501 330.505,403.96 330.505,408.227L330.505,426.685C330.505,430.952 327.046,434.411 322.779,434.411Z" style="fill:rgb(254,192,7);fill-rule:nonzero;"/>
    </g>
    <g transform="matrix(0.739128,0,0,0.739128,103.439,160.772)">
        <path d="M503.759,179.248L269.656,179.248C265.104,179.248 261.415,175.558 261.415,171.007L261.415,132.855C261.415,128.303 265.105,124.614 269.656,124.614L503.758,124.614C508.31,124.614 511.999,128.304 511.999,132.855L511.999,171.007C512,175.558 508.31,179.248 503.759,179.248Z" style="fill:rgb(210,227,241);fill-rule:nonzero;"/>
    </g>
    <g transform="matrix(0.739128,0,0,0.739128,103.439,160.772)">
        <path d="M333.01,179.248L269.656,179.248C265.104,179.248 261.415,175.558 261.415,171.007L261.415,132.855C261.415,128.303 265.105,124.614 269.656,124.614L333.01,124.614L333.01,179.248Z" style="fill:rgb(255,39,150);fill-rule:nonzero;"/>
    </g>
    <g transform="matrix(0.739128,0,0,0.739128,103.439,160.772)">
        <path d="M503.759,273.099L269.656,273.099C265.104,273.099 261.415,269.409 261.415,264.858L261.415,226.706C261.415,222.154 265.105,218.465 269.656,218.465L503.758,218.465C508.31,218.465 511.999,222.155 511.999,226.706L511.999,264.858C512,269.409 508.31,273.099 503.759,273.099Z" style="fill:rgb(210,227,241);fill-rule:nonzero;"/>
    </g>
    <g transform="matrix(0.739128,0,0,0.739128,103.439,160.772)">
        <path d="M448.927,273.099L269.656,273.099C265.104,273.099 261.415,269.409 261.415,264.858L261.415,226.706C261.415,222.154 265.105,218.465 269.656,218.465L448.927,218.465L448.927,273.099Z" style="fill:rgb(138,228,109);fill-rule:nonzero;"/>
    </g>
    <g transform="matrix(0.739128,0,0,0.739128,103.439,160.772)">
        <path d="M503.759,366.949L269.656,366.949C265.104,366.949 261.415,363.259 261.415,358.708L261.415,320.556C261.415,316.004 265.105,312.315 269.656,312.315L503.758,312.315C508.31,312.315 511.999,316.005 511.999,320.556L511.999,358.708C512,363.259 508.31,366.949 503.759,366.949Z" style="fill:rgb(210,227,241);fill-rule:nonzero;"/>
    </g>
    <g transform="matrix(0.739128,0,0,0.739128,103.439,160.772)">
        <path d="M408.016,366.949L269.656,366.949C265.104,366.949 261.415,363.259 261.415,358.708L261.415,320.556C261.415,316.004 265.105,312.315 269.656,312.315L408.016,312.315L408.016,366.949Z" style="fill:rgb(254,192,7);fill-rule:nonzero;"/>
    </g>
</svg>
